<?xml version="1.0" standalone="no"?>
<!DOCTYPE svg PUBLIC "-//W3C//DTD SVG 20010904//EN"
 "http://www.w3.org/TR/2001/REC-SVG-20010904/DTD/svg10.dtd">
<svg version="1.0" xmlns="http://www.w3.org/2000/svg"
 width="500.000000pt" height="500.000000pt" viewBox="0 0 500.000000 500.000000"
 preserveAspectRatio="xMidYMid meet">

<g transform="translate(0.000000,500.000000) scale(0.100000,-0.100000)"
fill="#000000" stroke="none">
<path d="M2358 3423 c6 -2 18 -2 25 0 6 3 1 5 -13 5 -14 0 -19 -2 -12 -5z"/>
<path d="M2638 3423 c6 -2 18 -2 25 0 6 3 1 5 -13 5 -14 0 -19 -2 -12 -5z"/>
<path d="M2310 3384 c-7 -19 -9 -38 -6 -41 3 -4 6 1 6 10 0 21 16 22 24 2 4
-11 20 -15 56 -15 41 0 50 3 50 18 0 20 -20 54 -20 35 0 -9 -17 -13 -50 -13
-51 0 -60 6 -38 28 8 8 9 12 1 12 -6 0 -17 -16 -23 -36z m120 -24 c0 -5 -4
-10 -10 -10 -5 0 -10 5 -10 10 0 6 5 10 10 10 6 0 10 -4 10 -10z"/>
<path d="M2596 3413 c-3 -4 -6 -11 -6 -17 0 -6 5 -4 10 4 6 10 10 11 10 3 0
-7 5 -13 10 -13 6 0 10 4 10 9 0 11 -26 22 -34 14z"/>
<path d="M2685 3410 c3 -5 8 -10 11 -10 2 0 4 5 4 10 0 6 -5 10 -11 10 -5 0
-7 -4 -4 -10z"/>
<path d="M2385 3400 c-3 -5 -1 -10 4 -10 6 0 11 5 11 10 0 6 -2 10 -4 10 -3 0
-8 -4 -11 -10z"/>
<path d="M2640 3380 c-49 -4 -65 -9 -65 -20 0 -22 87 -26 108 -5 20 20 27 19
28 -2 0 -10 3 -13 5 -6 12 29 -10 38 -76 33z m-35 -20 c3 -5 -1 -10 -9 -10 -9
0 -16 5 -16 10 0 6 4 10 9 10 6 0 13 -4 16 -10z"/>
<path d="M2502 3334 c4 -21 22 -23 26 -1 2 10 -3 17 -13 17 -10 0 -15 -6 -13
-16z"/>
<path d="M2292 3332 c-33 -3 -49 -23 -67 -82 -7 -23 -6 -24 9 -11 11 9 20 11
24 5 6 -8 129 -34 162 -34 15 0 12 24 -9 73 -21 48 -41 56 -119 49z m98 -31
c17 -33 12 -36 -65 -36 -77 0 -82 3 -65 36 9 15 22 19 65 19 43 0 56 -4 65
-19z m22 -66 c0 -5 -5 -11 -11 -13 -6 -2 -11 4 -11 13 0 9 5 15 11 13 6 -2 11
-8 11 -13z"/>
<path d="M2345 3299 c-10 -15 1 -23 20 -15 9 3 13 10 10 16 -8 13 -22 13 -30
-1z"/>
<path d="M2658 3332 c-29 -3 -38 -8 -46 -30 -6 -15 -13 -35 -17 -44 -5 -14 -2
-18 14 -18 12 0 21 -4 21 -10 0 -5 -10 -10 -22 -10 -12 0 -19 -3 -15 -6 3 -4
47 1 97 10 49 10 95 14 100 11 14 -9 13 -4 -10 48 -22 48 -40 56 -122 49z
m104 -37 c6 -14 9 -27 7 -29 -2 -2 -27 -2 -55 1 -46 5 -51 8 -46 25 4 15 1 19
-9 16 -8 -3 -13 -15 -12 -27 2 -15 -3 -21 -17 -21 -14 0 -18 5 -13 18 12 35
26 42 79 42 48 0 56 -3 66 -25z"/>
<path d="M2420 3320 c0 -5 5 -10 10 -10 6 0 10 5 10 10 0 6 -4 10 -10 10 -5 0
-10 -4 -10 -10z"/>
<path d="M2580 3320 c0 -5 5 -10 10 -10 6 0 10 5 10 10 0 6 -4 10 -10 10 -5 0
-10 -4 -10 -10z"/>
<path d="M2499 3230 c-1 -16 -2 -36 -3 -42 -1 -7 7 -14 17 -16 14 -3 17 4 17
42 0 34 -4 46 -15 46 -10 0 -16 -11 -16 -30z"/>
<path d="M2178 3213 c-22 -3 -30 -13 -43 -53 -9 -28 -21 -52 -26 -55 -12 -8
-12 -55 1 -55 6 0 10 7 10 15 0 24 31 31 46 10 14 -19 55 -28 187 -41 l67 -7
0 36 c0 20 -4 38 -9 42 -5 3 -17 27 -26 54 -14 44 -19 49 -53 55 -39 6 -109 6
-154 -1z m136 -20 c31 -5 41 -12 52 -39 8 -18 14 -35 14 -36 0 -2 -54 -3 -120
-3 -66 0 -120 1 -120 3 0 1 6 18 14 37 11 25 22 35 43 38 47 7 76 7 117 0z
m84 -120 c5 -17 -26 -29 -40 -15 -6 6 -7 15 -3 22 9 14 37 9 43 -7z"/>
<path d="M2297 3174 c-4 -4 -7 -16 -7 -26 0 -14 6 -19 23 -16 14 2 22 10 22
23 0 20 -25 32 -38 19z"/>
<path d="M2677 3211 c-23 -5 -33 -17 -53 -66 -13 -33 -24 -72 -24 -87 0 -25 4
-28 33 -28 61 1 211 28 215 39 5 15 29 14 35 -1 4 -10 6 -10 6 0 1 18 19 15
24 -5 3 -11 5 -7 6 10 0 15 -3 27 -7 27 -5 0 -17 24 -27 54 -18 52 -19 54 -63
60 -53 7 -106 6 -145 -3z m169 -24 c2 -2 10 -19 18 -38 l14 -34 -119 0 c-65 0
-119 2 -119 4 0 3 5 19 12 37 8 23 19 34 37 38 26 4 151 -1 157 -7z m-176
-122 c0 -10 -10 -15 -30 -15 -20 0 -30 5 -30 15 0 10 10 15 30 15 20 0 30 -5
30 -15z"/>
<path d="M2687 3174 c-4 -4 -7 -16 -7 -26 0 -14 6 -19 23 -16 14 2 22 10 22
23 0 20 -25 32 -38 19z"/>
<path d="M2392 3183 c5 -24 25 -27 31 -3 4 15 0 20 -15 20 -13 0 -18 -6 -16
-17z"/>
<path d="M2592 3183 c5 -24 25 -27 31 -3 4 15 0 20 -15 20 -13 0 -18 -6 -16
-17z"/>
<path d="M2075 3060 c-3 -5 -1 -10 4 -10 6 0 11 5 11 10 0 6 -2 10 -4 10 -3 0
-8 -4 -11 -10z"/>
<path d="M2091 3035 l-74 -10 -25 -70 c-14 -38 -29 -71 -34 -73 -4 -2 -8 -24
-8 -48 l0 -44 220 0 220 0 0 39 c0 21 -6 44 -14 50 -7 6 -24 39 -36 74 -12 34
-25 65 -29 69 -13 15 -148 23 -220 13z m178 -34 c16 -4 29 -21 43 -55 10 -27
17 -50 16 -52 -2 -1 -39 2 -82 8 -55 7 -103 7 -160 0 -44 -6 -82 -9 -83 -8 -1
1 6 24 16 51 13 35 26 52 42 56 31 9 177 9 208 0z m-239 -146 c17 -20 5 -45
-20 -45 -11 0 -23 7 -26 15 -6 15 11 45 26 45 4 0 13 -7 20 -15z m308 6 c21
-13 10 -46 -16 -49 -27 -4 -40 22 -22 43 14 17 20 18 38 6z"/>
<path d="M2212 2978 c-18 -18 -14 -46 8 -58 28 -15 65 22 50 50 -12 22 -40 26
-58 8z"/>
<path d="M2791 3038 c-35 -4 -70 -9 -76 -12 -7 -2 -22 -33 -35 -68 -13 -34
-29 -70 -37 -79 -7 -8 -13 -32 -13 -52 l0 -37 220 0 220 0 0 45 c0 25 -4 45
-9 45 -4 0 -21 34 -36 75 -22 61 -31 75 -49 76 -11 0 -43 4 -71 7 -27 4 -79 4
-114 0z m157 -34 c27 -5 34 -14 48 -56 9 -27 14 -51 13 -52 -2 -2 -39 1 -81 7
-51 6 -105 6 -155 0 -43 -6 -80 -9 -82 -7 -2 2 5 25 16 51 13 33 27 49 44 54
31 9 158 11 197 3z m-278 -169 c0 -14 -4 -25 -10 -25 -5 0 -10 11 -10 25 0 14
5 25 10 25 6 0 10 -11 10 -25z m60 0 c0 -18 -5 -25 -19 -25 -11 0 -23 5 -26
10 -11 18 3 40 25 40 15 0 20 -7 20 -25z m290 0 c0 -20 -5 -25 -25 -25 -20 0
-25 5 -25 25 0 20 5 25 25 25 20 0 25 -5 25 -25z m30 0 c0 -14 -4 -25 -10 -25
-5 0 -10 11 -10 25 0 14 5 25 10 25 6 0 10 -11 10 -25z"/>
<path d="M2750 2971 c-14 -27 -2 -51 25 -51 32 0 49 23 35 49 -14 26 -46 27
-60 2z"/>
<path d="M2330 3010 c0 -5 7 -10 15 -10 8 0 15 -9 15 -20 0 -22 26 -38 39 -24
5 5 11 21 15 37 6 26 5 27 -39 27 -25 0 -45 -4 -45 -10z"/>
<path d="M2487 3013 c-3 -5 -8 -62 -11 -128 -4 -66 -9 -144 -13 -172 l-5 -53
51 0 51 0 -5 83 c-18 303 -15 277 -40 277 -13 0 -26 -3 -28 -7z"/>
<path d="M2604 3004 c3 -9 6 -25 6 -36 0 -26 43 -21 49 7 2 11 11 25 20 32 13
10 8 12 -33 13 -40 0 -47 -3 -42 -16z"/>
<path d="M1875 2828 c-50 -56 -121 -137 -158 -180 l-69 -78 69 0 68 0 73 104
c66 96 72 108 72 155 0 31 5 53 13 58 11 7 31 43 24 43 -1 0 -43 -46 -92 -102z"/>
<path d="M3056 2905 c4 -8 10 -15 15 -15 5 0 9 -24 9 -53 0 -51 4 -59 77 -160
l77 -107 59 0 c55 0 58 1 46 18 -37 47 -281 332 -284 332 -3 0 -2 -7 1 -15z"/>
<path d="M1955 2743 c10 -61 13 -65 42 -61 23 2 29 8 31 36 l3 32 134 0 134 0
3 -32 c3 -29 7 -33 36 -36 31 -3 32 -2 32 32 0 20 5 36 10 36 6 0 10 7 10 15
0 13 -31 15 -220 15 l-221 0 6 -37z"/>
<path d="M2630 2765 c0 -8 5 -15 10 -15 6 0 10 -16 10 -35 0 -32 2 -35 29 -35
26 0 30 4 33 33 l3 32 138 3 137 3 0 -36 c0 -32 2 -35 30 -35 27 0 30 3 30 29
0 17 5 33 10 36 6 3 10 13 10 21 0 12 -35 14 -220 14 -189 0 -220 -2 -220 -15z"/>
<path d="M1030 2332 c0 -5 29 -72 65 -150 l65 -141 0 -110 0 -111 51 0 50 0
-2 113 -2 112 42 90 c24 50 54 114 67 143 l24 52 -54 0 -53 0 -22 -61 c-13
-33 -29 -77 -38 -97 l-16 -37 -27 81 c-42 123 -43 124 -100 124 -28 0 -50 -4
-50 -8z"/>
<path d="M3934 2325 c-3 -8 -21 -104 -39 -212 -18 -109 -34 -196 -35 -193 -1
3 -19 95 -39 205 l-36 200 -47 3 c-35 2 -48 -1 -48 -11 0 -7 23 -120 50 -251
28 -131 50 -240 50 -242 0 -4 140 -6 140 -1 0 1 22 115 49 252 36 181 46 252
37 257 -20 14 -76 9 -82 -7z"/>
<path d="M660 2075 l0 -255 45 0 45 0 0 120 0 120 65 0 65 0 0 -120 0 -120 50
0 50 0 0 255 0 255 -50 0 -50 0 0 -95 0 -95 -65 0 -65 0 0 95 0 95 -45 0 -45
0 0 -255z"/>
<path d="M1440 2075 l0 -255 45 0 45 0 0 105 0 105 58 0 c71 0 119 23 146 70
25 43 26 122 3 167 -27 52 -61 63 -187 63 l-110 0 0 -255z m200 165 c25 -25
26 -80 3 -109 -13 -16 -31 -22 -63 -24 l-45 -2 -3 78 -3 77 46 0 c32 0 51 -6
65 -20z"/>
<path d="M1830 2075 l0 -255 135 0 135 0 0 40 0 40 -90 0 -90 0 0 80 0 80 80
0 80 0 0 40 0 40 -80 0 -80 0 0 60 0 60 90 0 90 0 0 35 0 35 -135 0 -135 0 0
-255z"/>
<path d="M2170 2075 l0 -255 45 0 45 0 0 110 0 110 48 0 c69 0 84 -19 90 -117
2 -43 9 -84 14 -90 12 -15 98 -18 98 -4 0 6 -4 13 -10 16 -5 3 -10 42 -10 85
0 86 -12 126 -42 135 -19 7 -25 25 -8 25 19 0 49 43 55 81 9 51 -9 102 -46
134 -29 24 -36 25 -155 25 l-124 0 0 -255z m210 165 c12 -12 20 -33 20 -55 0
-52 -28 -75 -90 -75 l-50 0 0 75 0 75 50 0 c37 0 55 -5 70 -20z"/>
<path d="M2740 2075 l0 -255 103 0 c127 0 160 15 197 86 22 44 25 61 25 174 0
107 -3 132 -22 172 -31 67 -58 78 -193 78 l-110 0 0 -255z m212 145 c14 -27
18 -60 18 -140 0 -130 -16 -170 -71 -184 -69 -17 -69 -18 -69 184 l0 181 53
-3 c48 -3 53 -5 69 -38z"/>
<path d="M3140 2075 l0 -255 45 0 45 0 0 110 0 110 48 0 c74 0 85 -13 91 -111
4 -46 10 -90 14 -96 5 -8 29 -13 57 -13 l49 0 -15 28 c-8 16 -14 56 -14 102 0
78 -16 120 -46 120 -21 0 -17 17 6 23 24 6 50 63 50 108 0 45 -28 98 -61 114
-20 11 -63 15 -149 15 l-120 0 0 -255z m212 168 c25 -23 24 -87 -3 -114 -16
-16 -30 -19 -67 -17 l-47 3 -3 73 -3 72 52 0 c35 0 59 -6 71 -17z"/>
<path d="M3540 2075 l0 -255 45 0 45 0 0 255 0 255 -45 0 -45 0 0 -255z"/>
<path d="M4080 2075 l0 -255 135 0 135 0 0 40 0 40 -85 0 -85 0 0 80 0 80 80
0 80 0 0 40 0 40 -80 0 -80 0 0 60 0 60 85 0 85 0 0 35 0 35 -135 0 -135 0 0
-255z"/>
<path d="M680 1540 c0 -38 -1 -40 -20 -30 -28 15 -59 3 -71 -27 -13 -35 -11
-113 4 -143 14 -28 51 -38 73 -20 10 9 14 9 14 1 0 -6 9 -11 20 -11 19 0 20 7
20 135 0 128 -1 135 -20 135 -17 0 -20 -7 -20 -40z m-5 -130 c0 -58 -2 -65
-20 -65 -18 0 -20 8 -23 68 -3 66 -2 68 20 65 21 -3 23 -8 23 -68z"/>
<path d="M1160 1560 c0 -15 7 -20 25 -20 18 0 25 5 25 20 0 15 -7 20 -25 20
-18 0 -25 -5 -25 -20z"/>
<path d="M1700 1560 c0 -13 7 -20 20 -20 13 0 20 7 20 20 0 13 -7 20 -20 20
-13 0 -20 -7 -20 -20z"/>
<path d="M3410 1445 c0 -127 1 -135 20 -135 17 0 19 8 22 83 3 74 5 82 23 82
18 0 20 -8 23 -82 3 -75 5 -83 22 -83 18 0 20 7 20 89 0 68 -4 93 -16 105 -18
19 -28 20 -55 6 -17 -10 -19 -7 -19 30 0 33 -3 40 -20 40 -19 0 -20 -7 -20
-135z"/>
<path d="M4370 1445 l0 -135 25 0 25 0 0 135 0 135 -25 0 -25 0 0 -135z"/>
<path d="M1986 1512 c-3 -5 -19 -7 -36 -4 l-30 4 0 -101 0 -101 25 0 c25 0 25
1 25 85 0 78 2 85 20 85 18 0 20 -7 20 -85 0 -84 0 -85 25 -85 25 0 25 1 25
78 0 42 -6 88 -13 102 -13 25 -50 39 -61 22z"/>
<path d="M2258 1509 c-15 -8 -18 -24 -18 -92 0 -87 8 -107 45 -107 12 0 26 5
33 12 9 9 12 6 12 -14 0 -31 -15 -38 -52 -24 -15 5 -31 7 -35 2 -13 -12 36
-46 67 -46 53 0 60 19 60 152 l0 120 -25 -4 c-14 -3 -28 -1 -31 3 -7 12 -35
11 -56 -2z m67 -99 c0 -58 -2 -65 -20 -65 -17 0 -20 8 -23 54 -4 65 2 84 25
79 15 -3 18 -14 18 -68z"/>
<path d="M2812 1504 c-28 -19 -28 -59 -1 -82 12 -9 33 -26 47 -38 14 -12 22
-26 18 -32 -10 -17 -36 -15 -42 3 -8 19 -44 20 -44 1 0 -8 7 -22 16 -31 22
-21 93 -17 108 7 16 26 -4 70 -47 97 -39 26 -47 45 -22 55 9 3 20 -3 27 -14 7
-11 21 -20 31 -20 14 0 17 5 12 23 -14 46 -61 60 -103 31z"/>
<path d="M3122 1504 c-19 -13 -22 -24 -22 -89 0 -85 12 -105 64 -105 38 0 66
25 66 59 0 32 -44 25 -48 -7 -2 -15 -9 -22 -20 -20 -25 5 -25 131 -1 136 10 2
19 -5 22 -18 7 -27 47 -28 47 0 0 27 -35 60 -63 60 -12 0 -33 -7 -45 -16z"/>
<path d="M3753 1505 c-20 -14 -23 -25 -23 -90 0 -87 12 -105 70 -105 56 0 74
29 68 115 -2 36 -9 70 -14 75 -20 20 -78 22 -101 5z m65 -94 c3 -71 2 -72 -20
-69 -21 3 -23 9 -26 67 -2 45 1 67 10 72 25 17 33 2 36 -70z"/>
<path d="M4070 1500 c-16 -16 -20 -33 -20 -89 0 -82 13 -101 69 -101 56 0 71
22 71 103 0 77 -19 107 -70 107 -17 0 -39 -9 -50 -20z m68 -22 c12 -12 16 -95
6 -122 -3 -9 -14 -16 -24 -16 -23 0 -30 19 -30 79 0 42 12 71 30 71 3 0 11 -5
18 -12z"/>
<path d="M900 1410 l0 -100 25 0 c24 0 25 2 25 70 0 59 3 72 20 82 21 14 28
48 9 48 -7 0 -18 -8 -25 -17 -13 -17 -13 -17 -14 0 0 10 -8 17 -20 17 -19 0
-20 -7 -20 -100z"/>
<path d="M1160 1410 l0 -100 25 0 25 0 0 100 0 100 -25 0 -25 0 0 -100z"/>
<path d="M1387 1448 c31 -137 31 -138 62 -138 27 0 29 3 50 85 26 103 26 115
2 115 -20 0 -25 -12 -36 -92 -4 -27 -11 -48 -15 -48 -4 0 -12 32 -19 70 -11
62 -15 70 -36 70 l-22 0 14 -62z"/>
<path d="M1700 1410 c0 -93 1 -100 20 -100 19 0 20 7 20 100 0 93 -1 100 -20
100 -19 0 -20 -7 -20 -100z"/>
</g>
</svg>
